<svg xmlns="http://www.w3.org/2000/svg" viewBox="0 0 1280 760" role="img" aria-labelledby="title desc">
  <title id="title">Anh bia PharmaCare moi</title>
  <desc id="desc">Female doctor, Vietnam flag, PharmaCare logo and pharmacy management dashboard</desc>
  <defs>
    <linearGradient id="bg" x1="0" x2="1" y1="0" y2="1">
      <stop offset="0" stop-color="#f7fcff"/>
      <stop offset=".48" stop-color="#e7f7ff"/>
      <stop offset="1" stop-color="#c9efff"/>
    </linearGradient>
    <linearGradient id="blue" x1="0" x2="1" y1="0" y2="1">
      <stop offset="0" stop-color="#006fd1"/>
      <stop offset="1" stop-color="#00a6d6"/>
    </linearGradient>
    <linearGradient id="coat" x1="0" x2="0" y1="0" y2="1">
      <stop offset="0" stop-color="#ffffff"/>
      <stop offset="1" stop-color="#e8f7ff"/>
    </linearGradient>
    <filter id="shadow" x="-12%" y="-12%" width="124%" height="140%">
      <feDropShadow dx="0" dy="18" stdDeviation="18" flood-color="#064773" flood-opacity=".16"/>
    </filter>
    <filter id="soft" x="-18%" y="-18%" width="136%" height="150%">
      <feDropShadow dx="0" dy="12" stdDeviation="12" flood-color="#1b75bb" flood-opacity=".12"/>
    </filter>
  </defs>

  <rect width="1280" height="760" fill="url(#bg)"/>
  <path d="M0 610c150-62 303-74 459-35 159 39 318 35 477-13 129-39 244-42 344-11v209H0z" fill="#d8f3ff"/>
  <path d="M0 665c168-32 331-27 489 15 180 47 342 33 488-41 110-56 211-72 303-48v169H0z" fill="#bde9fb"/>

  <g transform="translate(74 64)" filter="url(#shadow)">
    <rect width="472" height="296" rx="30" fill="#fff"/>
    <rect x="30" y="30" width="184" height="54" rx="16" fill="url(#blue)"/>
    <path fill="#fff" d="M60 44h10v16h16v10H70v16H60V70H44V60h16z"/>
    <text x="100" y="64" fill="#fff" font-family="Segoe UI, Arial, sans-serif" font-size="22" font-weight="800">PharmaCare</text>
    <rect x="30" y="112" width="412" height="52" rx="17" fill="#eef9ff"/>
    <path d="M62 138h168" stroke="#1b75bb" stroke-width="12" stroke-linecap="round"/>
    <path d="M62 194h84M62 226h132M62 258h102" stroke="#9ddff5" stroke-width="12" stroke-linecap="round"/>
    <rect x="264" y="188" width="146" height="72" rx="18" fill="#f4fbff"/>
    <path d="M298 234c23-40 50-58 78-54" fill="none" stroke="#00a6d6" stroke-width="14" stroke-linecap="round"/>
    <circle cx="298" cy="234" r="11" fill="#1b75bb"/>
    <circle cx="376" cy="180" r="11" fill="#15a76d"/>
  </g>

  <g transform="translate(620 68)" filter="url(#soft)">
    <rect width="350" height="156" rx="28" fill="#fff"/>
    <rect x="30" y="34" width="112" height="76" rx="14" fill="#da251d"/>
    <path fill="#ffde00" d="m86 47 8.4 25.7h27.1L99.6 88.6l8.4 25.5L86 98.3l-22 15.8 8.4-25.5-21.9-15.9h27.1z"/>
    <text x="166" y="66" fill="#073763" font-family="Segoe UI, Arial, sans-serif" font-size="22" font-weight="800">San sang phuc vu</text>
    <text x="166" y="96" fill="#2b6f96" font-family="Segoe UI, Arial, sans-serif" font-size="15" font-weight="600">Nha thuoc tai Viet Nam</text>
  </g>

  <g transform="translate(492 286)" filter="url(#shadow)">
    <rect width="396" height="248" rx="32" fill="#fff"/>
    <rect x="30" y="32" width="336" height="42" rx="16" fill="#eef8ff"/>
    <rect x="54" y="104" width="76" height="74" rx="18" fill="#e9f8ff"/>
    <rect x="160" y="104" width="76" height="74" rx="18" fill="#f1fbff"/>
    <rect x="266" y="104" width="76" height="74" rx="18" fill="#e9f8ff"/>
    <path d="M80 134h24v24h24v18h-24v24H80v-24H56v-18h24z" transform="translate(0 -20)" fill="#0078d7"/>
    <path d="M189 134c17-26 42-33 58-20-4 24-28 38-58 20z" fill="#15a76d"/>
    <path d="M292 131h32M292 154h46M292 177h26" stroke="#00a6d6" stroke-width="12" stroke-linecap="round"/>
    <rect x="54" y="202" width="234" height="14" rx="7" fill="#bfe8ff"/>
    <circle cx="330" cy="210" r="22" fill="#e9f8ef"/>
    <path d="m320 210 8 8 18-25" fill="none" stroke="#15a76d" stroke-width="7" stroke-linecap="round" stroke-linejoin="round"/>
  </g>

  <g transform="translate(892 212)">
    <ellipse cx="154" cy="430" rx="142" ry="28" fill="#8fcce8" opacity=".45"/>
    <path d="M92 194c-38 28-61 83-58 154l8 174h222l10-174c3-72-21-127-60-154z" fill="#e7f6ff"/>
    <path d="M72 236c-34 40-48 90-42 154l16 132h68l-11-202z" fill="#fff" stroke="#d2ecf8" stroke-width="6"/>
    <path d="M236 236c34 40 48 90 42 154l-16 132h-68l11-202z" fill="#fff" stroke="#d2ecf8" stroke-width="6"/>
    <path d="M92 194h122c26 41 35 90 26 149l-28 179H94L66 343c-9-59 0-108 26-149z" fill="url(#coat)" stroke="#d2ecf8" stroke-width="6"/>
    <path d="M128 222h52v52h52v50h-52v52h-52v-52H76v-50h52z" fill="#00a6d6"/>
    <path d="M96 184c26 34 90 34 116 0v58c-27 35-89 35-116 0z" fill="#f2c7a2"/>
    <circle cx="154" cy="135" r="58" fill="#f2c7a2"/>
    <path d="M89 135c-5-58 34-99 87-93 49 5 74 43 68 96-34 9-83 4-126-15-9 10-16 14-29 12z" fill="#113b61"/>
    <path d="M102 124c-5 11-7 23-5 36-14-7-18-25-7-36z" fill="#f2c7a2"/>
    <path d="M211 124c5 11 7 23 5 36 14-7 18-25 7-36z" fill="#f2c7a2"/>
    <path d="M126 158c15 16 43 16 58 0" fill="none" stroke="#b96f5b" stroke-width="6" stroke-linecap="round"/>
    <path d="M113 237c-34 72-38 157-12 255" fill="none" stroke="#0078d7" stroke-width="9" stroke-linecap="round"/>
    <path d="M198 237c34 72 38 157 12 255" fill="none" stroke="#0078d7" stroke-width="9" stroke-linecap="round"/>
    <circle cx="104" cy="499" r="15" fill="#0078d7"/>
    <circle cx="206" cy="499" r="15" fill="#0078d7"/>
    <path d="M86 220c-18 20-27 54-22 102" fill="none" stroke="#0b5798" stroke-width="8" stroke-linecap="round"/>
    <circle cx="64" cy="328" r="24" fill="#0b5798"/>
  </g>

  <g transform="translate(155 430)" filter="url(#soft)">
    <rect width="252" height="146" rx="24" fill="#fff"/>
    <rect x="28" y="34" width="62" height="82" rx="18" fill="#0078d7"/>
    <rect x="104" y="34" width="62" height="82" rx="18" fill="#15a76d"/>
    <rect x="180" y="34" width="42" height="82" rx="18" fill="#00a6d6"/>
    <rect x="42" y="54" width="34" height="10" rx="5" fill="#fff" opacity=".8"/>
    <rect x="118" y="54" width="34" height="10" rx="5" fill="#fff" opacity=".8"/>
  </g>
</svg>
